Coordinates
version=1
nRows=16
nColumns=40
inDegrees=yes

Units are S.I. units (second, meters, Newtons, ...)
Angles are in degrees.

endheader
time	pelvis_tilt	pelvis_list	pelvis_rotation	pelvis_tx	pelvis_ty	pelvis_tz	hip_flexion_r	hip_adduction_r	hip_rotation_r	knee_angle_r	knee_angle_r_beta	ankle_angle_r	subtalar_angle_r	mtp_angle_r	hip_flexion_l	hip_adduction_l	hip_rotation_l	knee_angle_l	knee_angle_l_beta	ankle_angle_l	subtalar_angle_l	mtp_angle_l	lumbar_extension	lumbar_bending	lumbar_rotation	arm_flex_r	arm_add_r	arm_rot_r	elbow_flex_r	pro_sup_r	wrist_flex_r	wrist_dev_r	arm_flex_l	arm_add_l	arm_rot_l	elbow_flex_l	pro_sup_l	wrist_flex_l	wrist_dev_l
     22.13750000	     -5.16455437	     -4.11191067	      2.02392899	      0.83034815	      0.93064800	      0.42750337	     31.60959379	     -5.27962796	     -5.26926230	     65.15621856	     65.15621856	      0.28722646	    -13.11650501	     -0.89974335	     13.62148479	     -3.10271094	     -3.73737824	     21.66662428	     21.66662428	     15.87795529	     -9.28027962	      3.23921900	    -10.03816510	      6.87257919	      2.59425047	      3.78697618	    -12.72161308	    -12.86987782	     25.31892233	     46.79736378	      0.00000000	      0.00000000	      8.71023377	    -17.48954912	    -12.34458003	     74.99545094	     47.24084221	      0.00000000	      0.00000000
     22.15071429	     -5.31721087	     -4.25324279	      1.82596749	      0.82969914	      0.93081070	      0.42808801	     32.66336833	     -5.10409413	     -5.62366886	     63.28812091	     63.28812091	      0.68123936	    -13.04097745	     -0.80758367	     13.12607871	     -3.29755481	     -3.84023826	     21.26143491	     21.26143491	     16.08020825	     -9.23057171	      3.19871686	     -9.93621492	      6.98512190	      2.18286695	      2.38542396	    -12.32871409	    -12.77041708	     24.88838825	     46.79251256	      0.00000000	      0.00000000	      9.58678194	    -18.12667502	    -12.76439265	     75.67256930	     47.28765975	      0.00000000	      0.00000000
     22.16392857	     -5.27037330	     -4.43322080	      1.54142813	      0.82924532	      0.93130601	      0.42889084	     33.27954179	     -4.74017776	     -5.87906239	     60.87317729	     60.87317729	      0.95327740	    -13.12578106	     -0.68845602	     12.18299058	     -3.54612910	     -4.03470414	     20.46844588	     20.46844588	     16.23166270	     -9.09241776	      3.08442478	    -10.18254271	      7.05589803	      2.58513924	      0.56227712	    -12.19169712	    -12.46176919	     24.55879529	     46.76044171	      0.00000000	      0.00000000	     10.63905535	    -17.88079155	    -13.45513207	     77.66393019	     47.38267579	      0.00000000	      0.00000000
     22.17714286	     -5.33519277	     -4.51972064	      1.28151486	      0.82874040	      0.93132412	      0.42969602	     33.86019786	     -4.54120379	     -6.24833189	     58.12714189	     58.12714189	      1.31699363	    -13.05210153	     -0.81322425	     11.47557454	     -3.70303062	     -4.31092385	     19.87913475	     19.87913475	     16.26652328	     -9.01228655	      2.70659417	    -10.24539007	      7.11659534	      2.54840657	     -1.14895732	    -11.95850134	    -12.06727041	     24.83381481	     46.69321531	      0.00000000	      0.00000000	     11.41335819	    -17.93855872	    -14.32235844	     79.56943767	     47.49258668	      0.00000000	      0.00000000
     22.19035714	     -5.58019015	     -4.64670841	      1.08425222	      0.82806823	      0.93100942	      0.43050990	     34.45098470	     -4.32287690	     -6.71600098	     54.96886164	     54.96886164	      1.63225089	    -12.68297000	     -0.64447659	     11.03642630	     -3.87196494	     -4.38248964	     19.39653688	     19.39653688	     16.47376228	     -8.91774642	      2.53316636	    -10.08675851	      7.22649458	      2.21119190	     -2.44704035	    -11.65696854	    -11.96129849	     24.65891781	     46.67746613	      0.00000000	      0.00000000	     12.15617089	    -18.36665814	    -14.74036306	     80.37128002	     47.54185015	      0.00000000	      0.00000000
     22.20357143	     -5.73454098	     -4.71218539	      0.85117045	      0.82757025	      0.93069199	      0.43143994	     34.73066951	     -4.10226486	     -7.15820614	     51.43458201	     51.43458201	      1.99003857	    -12.20714594	     -0.49212591	     10.44974307	     -3.99759256	     -4.55861243	     18.86537937	     18.86537937	     16.64458134	     -8.77555590	      2.32325980	    -10.01272233	      7.27013492	      2.08378669	     -3.74719835	    -11.41232877	    -11.89340293	     24.52268488	     46.66340558	      0.00000000	      0.00000000	     12.96059570	    -18.58095129	    -15.17477396	     81.43902083	     47.59683594	      0.00000000	      0.00000000
     22.21678571	     -5.74648148	     -4.76478050	      0.57886707	      0.82734579	      0.93042843	      0.43249219	     34.60704910	     -3.85714071	     -7.67923540	     47.52456361	     47.52456361	      2.25196633	    -11.50298268	     -0.73831861	      9.57285882	     -4.12249866	     -4.90634949	     18.12774164	     18.12774164	     16.76257853	     -8.51065639	      1.76529156	    -10.17998917	      7.25307912	      2.24912579	     -5.19467218	    -11.19948341	    -11.84276078	     24.80686876	     46.62963382	      0.00000000	      0.00000000	     13.72675617	    -18.42711933	    -15.84754266	     83.23430036	     47.68848272	      0.00000000	      0.00000000
     22.23000000	     -6.02514390	     -4.79660552	      0.38651912	      0.82699491	      0.92962844	      0.43358766	     34.60330747	     -3.62169827	     -8.27006856	     43.39010759	     43.39010759	      2.51679059	    -10.64938019	     -0.56576974	      9.13263886	     -4.21245486	     -5.08650122	     17.62784928	     17.62784928	     16.94145040	     -8.37232291	      1.44394846	     -9.94575411	      7.27877971	      2.00204673	     -6.26550540	    -10.95369006	    -11.84715520	     24.78831271	     46.61879567	      0.00000000	      0.00000000	     14.34861607	    -18.67038753	    -16.19964512	     84.10281985	     47.73595469	      0.00000000	      0.00000000
     22.24321429	     -6.03671245	     -4.76877745	      0.15986653	      0.82707178	      0.92909845	      0.43472678	     34.02948369	     -3.40942169	     -8.97301315	     38.96429128	     38.96429128	      2.75487086	     -9.31067494	     -0.62438996	      8.28544320	     -4.26018248	     -5.44771958	     16.98735892	     16.98735892	     17.05762945	     -8.04440527	      0.83681801	    -10.04373723	      7.22256828	      1.99715000	     -7.35193588	    -10.79495538	    -11.90120468	     25.01320084	     46.60112767	      0.00000000	      0.00000000	     14.92748391	    -18.60753844	    -16.64532285	     85.41320430	     47.80052451	      0.00000000	      0.00000000
     22.25642857	     -6.18455732	     -4.71570675	     -0.03550735	      0.82727974	      0.92818740	      0.43598437	     33.43351069	     -3.15160485	     -9.68119536	     34.46376906	     34.46376906	      2.91703795	     -7.83772196	     -0.39599482	      7.62480719	     -4.27484599	     -5.74818501	     16.41937212	     16.41937212	     17.20266626	     -7.77634494	      0.29143805	     -9.91960818	      7.16284838	      1.89043785	     -8.24593022	    -10.59087198	    -11.95373091	     25.14821146	     46.58942599	      0.00000000	      0.00000000	     15.44147929	    -18.66825505	    -16.96420476	     86.40813054	     47.84931245	      0.00000000	      0.00000000
     22.26964286	     -6.31548478	     -4.60069334	     -0.23217438	      0.82771797	      0.92709860	      0.43737231	     32.70056935	     -2.88882183	    -10.36814015	     30.06708192	     30.06708192	      3.04554213	     -6.18470973	      0.06774660	      6.94556742	     -4.22854187	     -6.06404743	     15.88472346	     15.88472346	     17.37646925	     -7.50832434	     -0.20197165	     -9.79925382	      7.05097005	      1.80984534	     -8.95673594	    -10.37657065	    -11.99239576	     25.22614434	     46.58110032	      0.00000000	      0.00000000	     15.92468840	    -18.72180860	    -17.18822431	     87.26650759	     47.88817757	      0.00000000	      0.00000000
     22.28285714	     -6.41900820	     -4.42263943	     -0.43721479	      0.82844301	      0.92586536	      0.43882494	     31.85724122	     -2.65284575	    -11.04962199	     25.92150570	     25.92150570	      3.08311525	     -4.38135387	      0.73662734	      6.23409393	     -4.11651650	     -6.39103256	     15.39063319	     15.39063319	     17.60238303	     -7.24103296	     -0.67671185	     -9.65283532	      6.83356102	      1.79316020	     -9.47495488	    -10.13667991	    -12.01015511	     25.29559847	     46.57333764	      0.00000000	      0.00000000	     16.37352541	    -18.77234317	    -17.34901744	     88.03205533	     47.92036183	      0.00000000	      0.00000000
     22.29607143	     -6.21815410	     -4.20323311	     -0.57673500	      0.82974150	      0.92485862	      0.44018311	     30.69821143	     -2.60172094	    -12.22803504	     22.38585248	     22.38585248	      3.42611264	     -1.70178132	      1.75512773	      5.04729987	     -3.96741116	     -6.90849966	     14.66512153	     14.66512153	     17.58531453	     -6.60684331	     -1.94282915	     -9.83149304	      6.62416747	      1.77756591	    -10.10503059	    -10.08107551	    -12.06559893	     25.72458818	     46.55196221	      0.00000000	      0.00000000	     16.57280656	    -18.60990917	    -17.58447560	     89.21418775	     47.97721773	      0.00000000	      0.00000000
     22.30928571	     -6.17501013	     -4.04882027	     -0.72799104	      0.83104959	      0.92352350	      0.44181700	     29.77943279	     -2.33777844	    -12.92501393	     19.38422854	     19.38422854	      3.45492913	     -0.06565661	      2.90404222	      4.19724499	     -3.88014659	     -7.13570201	     14.26309165	     14.26309165	     17.81559429	     -6.46787650	     -2.48388836	     -9.77152697	      6.50182610	      1.75052742	    -10.36188797	     -9.98392963	    -11.99768854	     25.78761357	     46.54083113	      0.00000000	      0.00000000	     16.81283412	    -18.57513263	    -17.58276685	     89.71583588	     47.99957769	      0.00000000	      0.00000000
     22.32250000	     -6.12949303	     -3.89236765	     -0.85414505	      0.83261727	      0.92213385	      0.44350339	     28.98604206	     -2.13760168	    -13.63286478	     17.16468505	     17.16468505	      3.52320593	      1.39081727	      3.86590461	      3.34762257	     -3.79697853	     -7.35253096	     13.90088329	     13.90088329	     18.09180209	     -6.24926335	     -2.85269655	     -9.65587845	      6.38940495	      1.78018797	    -10.46486584	     -9.93285163	    -11.87997902	     25.78638218	     46.53040374	      0.00000000	      0.00000000	     16.97362782	    -18.47331799	    -17.49825807	     90.11761733	     48.01346791	      0.00000000	      0.00000000
     22.33571429	     -6.15018442	     -3.78053058	     -0.99234371	      0.83422298	      0.92064579	      0.44532108	     28.41932934	     -1.92454312	    -14.17456194	     15.68593964	     15.68593964	      3.33575792	      2.34888779	      4.43229998	      2.62592055	     -3.77140258	     -7.51596647	     13.65058878	     13.65058878	     18.46504086	     -6.10344129	     -3.04253875	     -9.47820748	      6.33555219	      1.80558516	    -10.41881363	     -9.88613202	    -11.76178682	     25.76719060	     46.52226604	      0.00000000	      0.00000000	     17.05183544	    -18.33651205	    -17.37831801	     90.35864084	     48.01785119	      0.00000000	      0.00000000
